<svg xmlns="http://www.w3.org/2000/svg" width="13.376" height="16.936" viewBox="0 0 13.376 16.936">
  <path id="Path_660" data-name="Path 660" d="M16.077,19.674a.676.676,0,0,0-.674.674.869.869,0,0,1-.866.866H5.588a.869.869,0,0,1-.866-.866V7.838a.869.869,0,0,1,.866-.866h8.949a.869.869,0,0,1,.866.866.674.674,0,1,0,1.347,0,2.214,2.214,0,0,0-2.213-2.213H5.588A2.214,2.214,0,0,0,3.375,7.838V20.348a2.214,2.214,0,0,0,2.213,2.213h8.949a2.214,2.214,0,0,0,2.213-2.213A.676.676,0,0,0,16.077,19.674Z" transform="translate(-3.375 -5.625)" fill="#fff"/>
</svg>
